HIERARCHY
ROOT joint_Root
{
	OFFSET 0.0 0.0 0.0
	CHANNELS 6 Xposition Yposition Zposition Zrotation Xrotation Yrotation 
	JOINT Hips
	{
		OFFSET 4.5925 91.4895 -427.239
		CHANNELS 6 Xposition Yposition Zposition Zrotation Xrotation Yrotation 
		JOINT Spine
		{
			OFFSET 15.7357 0.0 0.0
			CHANNELS 6 Xposition Yposition Zposition Zrotation Xrotation Yrotation 
			JOINT Chest
			{
				OFFSET 8.98455 -0.406207 0.0
				CHANNELS 6 Xposition Yposition Zposition Zrotation Xrotation Yrotation 
				JOINT Neck
				{
					OFFSET 16.3773 0.0 0.0
					CHANNELS 6 Xposition Yposition Zposition Zrotation Xrotation Yrotation 
					JOINT Head
					{
						OFFSET 6.45672 0.0 0.0
						CHANNELS 6 Xposition Yposition Zposition Zrotation Xrotation Yrotation 
						End Site
						{
							OFFSET 0.0 0.0 0.0
						}
					}
				}
				JOINT Shoulder_L
				{
					OFFSET 12.9942 -0.242716 4.98039
					CHANNELS 6 Xposition Yposition Zposition Zrotation Xrotation Yrotation 
					JOINT UpperArm_L
					{
						OFFSET 5.34809 0.0 0.0
						CHANNELS 6 Xposition Yposition Zposition Zrotation Xrotation Yrotation 
						JOINT LowerArm_L
						{
							OFFSET 24.3286 1.87007e-05 0.0
							CHANNELS 6 Xposition Yposition Zposition Zrotation Xrotation Yrotation 
							JOINT Hand_L
							{
								OFFSET 22.2916 0.0 0.0
								CHANNELS 6 Xposition Yposition Zposition Zrotation Xrotation Yrotation 
								End Site
								{
									OFFSET 0.0 0.0 0.0
								}
							}
						}
					}
				}
				JOINT Shoulder_R
				{
					OFFSET 12.9945 -0.242716 -4.98039
					CHANNELS 6 Xposition Yposition Zposition Zrotation Xrotation Yrotation 
					JOINT UpperArm_R
					{
						OFFSET -5.34813 0.0 0.0
						CHANNELS 6 Xposition Yposition Zposition Zrotation Xrotation Yrotation 
						JOINT LowerArm_R
						{
							OFFSET -24.3289 0.000322201 0.0
							CHANNELS 6 Xposition Yposition Zposition Zrotation Xrotation Yrotation 
							JOINT Hand_R
							{
								OFFSET -22.2915 -0.000108084 0.0
								CHANNELS 6 Xposition Yposition Zposition Zrotation Xrotation Yrotation 
								End Site
								{
									OFFSET 0.0 0.0 0.0
								}
							}
						}
					}
				}
			}
		}
		JOINT UpperLeg_L
		{
			OFFSET -2.19248 -6.46944 0.0
			CHANNELS 6 Xposition Yposition Zposition Zrotation Xrotation Yrotation 
			JOINT LowerLeg_L
			{
				OFFSET 39.0811 0.0 -1.23785e-05
				CHANNELS 6 Xposition Yposition Zposition Zrotation Xrotation Yrotation 
				JOINT Foot_L
				{
					OFFSET 40.9854 0.0 -1.26872e-05
					CHANNELS 6 Xposition Yposition Zposition Zrotation Xrotation Yrotation 
					JOINT Toes_L
					{
						OFFSET 11.7543 0.0 0.0
						CHANNELS 6 Xposition Yposition Zposition Zrotation Xrotation Yrotation 
						End Site
						{
							OFFSET 0.0 0.0 0.0
						}
					}
				}
			}
		}
		JOINT UpperLeg_R
		{
			OFFSET -2.19251 6.46944 0.0
			CHANNELS 6 Xposition Yposition Zposition Zrotation Xrotation Yrotation 
			JOINT LowerLeg_R
			{
				OFFSET -39.0811 -0.00228153 -0.0401928
				CHANNELS 6 Xposition Yposition Zposition Zrotation Xrotation Yrotation 
				JOINT Foot_R
				{
					OFFSET -40.9854 0.0 0.0
					CHANNELS 6 Xposition Yposition Zposition Zrotation Xrotation Yrotation 
					JOINT Toes_R
					{
						OFFSET -11.7543 0.0 0.0
						CHANNELS 6 Xposition Yposition Zposition Zrotation Xrotation Yrotation 
						End Site
						{
							OFFSET 0.0 0.0 0.0
						}
					}
				}
			}
		}
	}
}
MOTION
Frames:	8
Frame Time:	0.0333333
0.000000 0.000000 0.000000 0.000000 0.000000 -0.000000 0.344032 92.007500 -1.154270 89.612900 1.210630 2.495190 15.735700 0.000005 -0.000001 82.313700 86.492500 -82.514100 8.984550 -0.406207 -0.000000 -0.815724 -0.923032 -0.407297 16.377300 -0.000001 -0.000001 4.085010 -4.636610 2.248650 6.456720 -0.000001 -0.000000 -4.750390 -4.506740 -1.691620 12.994200 -0.242716 4.980390 -84.589100 -9.824760 -60.965200 5.348090 -0.000007 -0.000001 -40.356200 -61.247300 -84.959600 24.328600 0.000019 0.000005 16.140600 14.747500 -48.665600 22.291600 -0.000001 0.000005 24.051900 5.308500 -0.167373 12.994500 -0.242716 -4.980390 94.680700 -10.931200 -66.646800 -5.348130 -0.000001 -0.000004 -38.490200 -62.206700 -81.011900 -24.328900 0.000322 -0.000009 -3.428970 -3.358120 -45.638800 -22.291500 -0.000108 -0.000004 22.473900 5.598540 -11.255600 -2.192480 -6.469440 -0.000000 -177.149000 -11.314800 -6.007230 39.081100 -0.000007 -0.000012 -0.108607 0.237708 24.555400 40.985400 -0.000006 -0.000013 1.207160 8.014880 -66.311600 11.754300 -0.000000 0.000003 -0.000180 -0.001697 -16.641800 -2.192510 6.469440 -0.000001 176.405000 25.594300 175.494000 -39.081100 -0.002282 -0.040193 -0.040393 0.098145 24.004700 -40.985400 0.000008 0.000006 3.544280 11.974000 -66.902000 -11.754300 -0.000006 -0.000006 -0.002019 -0.028958 -17.750600
0.000000 0.000000 0.000000 0.000000 0.000000 -0.000000 0.379628 92.012900 -1.218020 89.575300 1.115090 2.470480 15.735700 0.000005 -0.000001 82.284900 86.462100 -82.470400 8.984550 -0.406207 -0.000000 -0.755678 -0.935926 -0.376835 16.377300 -0.000001 -0.000001 4.092290 -4.682520 2.304380 6.456720 -0.000001 -0.000000 -4.748980 -4.419110 -1.635180 12.994200 -0.242716 4.980390 -84.771100 -9.515240 -61.031000 5.348090 -0.000007 -0.000001 -39.142100 -60.748400 -82.058900 24.328600 0.000019 0.000005 15.592400 13.140300 -50.833600 22.291600 -0.000001 0.000005 23.902600 5.307340 -0.134388 12.994500 -0.242716 -4.980390 94.588700 -10.685700 -66.594400 -5.348130 -0.000001 -0.000004 -37.464100 -61.445600 -78.853100 -24.328900 0.000322 -0.000009 -3.838600 -3.653630 -46.466900 -22.291500 -0.000108 -0.000004 22.425600 5.589880 -10.754800 -2.192480 -6.469440 -0.000000 -177.156000 -11.295400 -6.082890 39.081100 -0.000007 -0.000012 -0.108249 0.236684 24.577300 40.985400 -0.000006 -0.000013 1.211000 7.904620 -66.285400 11.754300 -0.000000 0.000003 -0.000194 -0.001802 -16.645600 -2.192510 6.469440 -0.000001 176.461000 25.517100 175.411000 -39.081100 -0.002282 -0.040193 -0.038672 0.094395 23.978900 -40.985400 0.000008 0.000006 3.541210 11.995200 -66.829300 -11.754300 -0.000006 -0.000006 -0.001849 -0.026807 -17.663100
0.000000 0.000000 0.000000 0.000000 0.000000 -0.000000 0.402653 92.008600 -1.275760 89.536000 1.038010 2.532190 15.735700 0.000005 -0.000001 82.151700 86.400900 -82.335800 8.984550 -0.406207 -0.000000 -0.636759 -0.969220 -0.373415 16.377300 -0.000001 -0.000001 4.056360 -4.702630 2.479250 6.456720 -0.000001 -0.000000 -4.698090 -4.216550 -1.535710 12.994200 -0.242716 4.980390 -85.060000 -9.075520 -61.278900 5.348090 -0.000007 -0.000001 -37.356800 -59.755300 -77.495100 24.328600 0.000019 0.000005 15.266400 11.092400 -54.821100 22.291600 -0.000001 0.000005 23.410100 5.307240 -0.131693 12.994500 -0.242716 -4.980390 94.409300 -10.256200 -66.583800 -5.348130 -0.000001 -0.000004 -36.217600 -59.951500 -75.450700 -24.328900 0.000322 -0.000009 -4.537090 -4.015640 -48.561500 -22.291500 -0.000108 -0.000004 22.058100 5.573410 -9.860330 -2.192480 -6.469440 -0.000000 -177.133000 -11.289700 -6.097560 39.081100 -0.000007 -0.000012 -0.107201 0.233497 24.660500 40.985400 -0.000006 -0.000013 1.217530 7.824120 -66.292600 11.754300 -0.000000 0.000003 -0.000197 -0.001831 -16.646700 -2.192510 6.469440 -0.000001 176.459000 25.525800 175.413000 -39.081100 -0.002282 -0.040193 -0.040553 0.098509 24.003900 -40.985400 0.000008 0.000006 3.533470 12.115500 -66.789300 -11.754300 -0.000006 -0.000006 -0.001886 -0.027275 -17.682200
0.000000 0.000000 0.000000 0.000000 0.000000 -0.000000 0.408169 91.995600 -1.337200 89.494700 0.985948 2.604720 15.735700 0.000005 -0.000001 81.943300 86.317000 -82.137400 8.984550 -0.406207 -0.000000 -0.474375 -1.018190 -0.392245 16.377300 -0.000001 -0.000001 3.832510 -4.650030 2.658370 6.456720 -0.000001 -0.000000 -4.588200 -4.013460 -1.265890 12.994200 -0.242716 4.980390 -85.459000 -8.444350 -61.593800 5.348090 -0.000007 -0.000001 -35.721700 -58.061100 -71.751400 24.328600 0.000019 0.000005 16.248400 9.273550 -61.060200 22.291600 -0.000001 0.000005 21.893900 5.308150 -0.157932 12.994500 -0.242716 -4.980390 94.068000 -9.494850 -66.677700 -5.348130 -0.000001 -0.000004 -34.766500 -57.732900 -70.679200 -24.328900 0.000322 -0.000009 -5.747840 -4.443740 -52.403300 -22.291500 -0.000108 -0.000004 21.247400 5.550750 -8.736510 -2.192480 -6.469440 -0.000000 -177.096000 -11.254900 -6.140230 39.081100 -0.000007 -0.000012 -0.107710 0.233059 24.804500 40.985400 -0.000006 -0.000013 1.215530 7.738760 -66.321000 11.754300 -0.000000 0.000003 -0.000184 -0.001727 -16.642800 -2.192510 6.469440 -0.000001 176.464000 25.544300 175.414000 -39.081100 -0.002282 -0.040193 -0.042562 0.102717 24.066700 -40.985400 0.000008 0.000006 3.442150 12.200300 -66.752700 -11.754300 -0.000006 -0.000006 -0.001932 -0.027859 -17.705900
0.000000 0.000000 0.000000 0.000000 0.000000 -0.000000 0.411438 91.971500 -1.392450 89.445300 0.915762 2.769990 15.735700 0.000005 -0.000001 81.921700 86.219200 -82.111200 8.984550 -0.406207 -0.000000 -0.281049 -1.049060 -0.381325 16.377300 -0.000001 -0.000001 3.669390 -4.459250 2.704000 6.456720 -0.000001 -0.000000 -4.553020 -3.847020 -0.880904 12.994200 -0.242716 4.980390 -85.920100 -7.823120 -62.344500 5.348090 -0.000007 -0.000001 -33.726100 -55.595800 -64.013700 24.328600 0.000019 0.000005 17.204500 6.833100 -68.981900 22.291600 -0.000001 0.000005 19.560800 5.309620 -0.197330 12.994500 -0.242716 -4.980390 93.532800 -8.486800 -67.299400 -5.348130 -0.000001 -0.000004 -32.499700 -54.968800 -63.861900 -24.328900 0.000322 -0.000009 -6.878340 -4.334210 -57.923800 -22.291500 -0.000108 -0.000004 20.205200 5.529170 -7.754080 -2.192480 -6.469440 -0.000000 -177.007000 -11.328100 -6.105210 39.081100 -0.000007 -0.000012 -0.109161 0.233936 25.015300 40.985400 -0.000006 -0.000013 1.233330 7.769200 -66.397200 11.754300 -0.000000 0.000003 -0.000180 -0.001693 -16.641600 -2.192510 6.469440 -0.000001 176.448000 25.538700 175.474000 -39.081100 -0.002282 -0.040193 -0.044601 0.106531 24.216600 -40.985400 0.000008 0.000006 3.464840 12.253900 -66.789300 -11.754300 -0.000006 -0.000006 -0.001900 -0.027460 -17.689700
0.000000 0.000000 0.000000 0.000000 0.000000 -0.000000 0.414288 91.946200 -1.440760 89.431200 0.842980 2.942940 15.735700 0.000005 -0.000001 81.699000 86.067500 -81.886000 8.984550 -0.406207 -0.000000 0.014803 -1.122540 -0.373777 16.377300 -0.000001 -0.000001 3.075550 -4.301510 2.830570 6.456720 -0.000001 -0.000000 -4.412250 -3.686330 -0.664318 12.994200 -0.242716 4.980390 -86.451600 -7.063970 -63.241000 5.348090 -0.000007 -0.000001 -31.745000 -52.232800 -55.133200 24.328600 0.000019 0.000005 18.161600 4.222870 -77.346800 22.291600 -0.000001 0.000005 16.871100 5.306000 -0.095641 12.994500 -0.242716 -4.980390 92.885600 -7.296380 -68.353900 -5.348130 -0.000001 -0.000004 -29.705500 -51.568400 -55.287900 -24.328900 0.000322 -0.000009 -8.416570 -3.998140 -64.761800 -22.291500 -0.000108 -0.000004 19.549200 5.504410 -6.712470 -2.192480 -6.469440 -0.000000 -176.976000 -11.349200 -6.051510 39.081100 -0.000007 -0.000012 -0.109076 0.231714 25.208100 40.985400 -0.000006 -0.000013 1.246720 7.713710 -66.467300 11.754300 -0.000000 0.000003 -0.000173 -0.001637 -16.639600 -2.192510 6.469440 -0.000001 176.353000 25.622200 175.557000 -39.081100 -0.002282 -0.040193 -0.050030 0.117789 24.364300 -40.985400 0.000008 0.000006 3.348590 12.444200 -66.793000 -11.754300 -0.000006 -0.000006 -0.001877 -0.027161 -17.677500
0.000000 0.000000 0.000000 0.000000 0.000000 -0.000000 0.414942 91.921400 -1.503890 89.420600 0.729869 3.044040 15.735700 0.000005 -0.000001 80.549500 85.904500 -80.720800 8.984550 -0.406207 -0.000000 0.312040 -1.333380 -0.338697 16.377300 -0.000001 -0.000001 2.382010 -4.007770 2.821770 6.456720 -0.000001 -0.000000 -4.347160 -3.428110 -0.331520 12.994200 -0.242716 4.980390 -87.137700 -5.866190 -63.933700 5.348090 -0.000007 -0.000001 -29.813900 -47.467600 -45.970400 24.328600 0.000019 0.000005 18.297300 1.751550 -84.718200 22.291600 -0.000001 0.000005 14.792300 5.300940 0.045663 12.994500 -0.242716 -4.980390 92.044000 -5.571500 -69.819000 -5.348130 -0.000001 -0.000004 -27.149200 -47.237700 -46.594000 -24.328900 0.000322 -0.000009 -9.474670 -3.219600 -71.393300 -22.291500 -0.000108 -0.000004 19.331200 5.489260 -6.107020 -2.192480 -6.469440 -0.000000 -176.948000 -11.448100 -6.079440 39.081100 -0.000007 -0.000012 -0.109339 0.230271 25.399800 40.985400 -0.000006 -0.000013 1.257350 7.686860 -66.523600 11.754300 -0.000000 0.000003 -0.000189 -0.001764 -16.644200 -2.192510 6.469440 -0.000001 176.290000 25.606800 175.549000 -39.081100 -0.002282 -0.040193 -0.059518 0.137847 24.503600 -40.985400 0.000008 0.000006 3.180120 12.641500 -66.770900 -11.754300 -0.000006 -0.000006 -0.001767 -0.025756 -17.620400
0.000000 0.000000 0.000000 0.000000 0.000000 -0.000000 0.399353 91.888200 -1.551420 89.402300 0.679990 3.147090 15.735700 0.000005 -0.000001 79.656600 85.763400 -79.843600 8.984550 -0.406207 -0.000000 0.567484 -1.509120 -0.366171 16.377300 -0.000001 -0.000001 1.746270 -3.896590 2.835730 6.456720 -0.000001 -0.000000 -4.231340 -3.174300 0.013090 12.994200 -0.242716 4.980390 -87.946700 -4.425420 -65.080600 5.348090 -0.000007 -0.000001 -28.168600 -41.412500 -36.945500 24.328600 0.000019 0.000005 18.585200 -0.046701 -90.139300 22.291600 -0.000001 0.000005 13.246900 5.308940 -0.179925 12.994500 -0.242716 -4.980390 91.233000 -3.679530 -71.465000 -5.348130 -0.000001 -0.000004 -25.486600 -41.734200 -37.827900 -24.328900 0.000322 -0.000009 -10.775000 -2.495200 -77.110700 -22.291500 -0.000108 -0.000004 19.526500 5.489610 -6.120380 -2.192480 -6.469440 -0.000000 -176.903000 -11.454500 -6.128340 39.081100 -0.000007 -0.000012 -0.110707 0.230623 25.642700 40.985400 -0.000006 -0.000013 1.260830 7.672910 -66.610900 11.754300 -0.000000 0.000003 -0.000192 -0.001791 -16.645200 -2.192510 6.469440 -0.000001 176.233000 25.651300 175.552000 -39.081100 -0.002282 -0.040193 -0.071118 0.162136 24.658100 -40.985400 0.000008 0.000006 2.872230 12.763800 -66.730500 -11.754300 -0.000006 -0.000006 -0.001678 -0.024612 -17.573900
